<?xml version="1.0" standalone="no"?>
<!DOCTYPE svg PUBLIC "-//W3C//DTD SVG 20010904//EN"
 "http://www.w3.org/TR/2001/REC-SVG-20010904/DTD/svg10.dtd">
<svg version="1.0" xmlns="http://www.w3.org/2000/svg"
 width="500.000000pt" height="500.000000pt" viewBox="0 0 500.000000 500.000000"
 preserveAspectRatio="xMidYMid meet">

<g transform="translate(0.000000,500.000000) scale(0.100000,-0.100000)"
fill="#000000" stroke="none">
<path d="M0 2500 l0 -2500 2500 0 2500 0 0 2500 0 2500 -2500 0 -2500 0 0
-2500z m1980 1365 l0 -45 -305 0 -305 0 0 -581 0 -581 373 5 c315 4 385 7 457
23 l85 19 3 598 2 597 418 0 c339 0 436 -3 513 -16 360 -62 567 -270 586 -589
20 -337 -133 -572 -439 -673 -149 -49 -282 -62 -649 -62 l-319 0 0 -515 0
-515 -55 0 -55 0 0 541 0 542 -32 -7 c-129 -27 -264 -36 -565 -36 l-323 0 0
-515 0 -515 -50 0 -50 0 0 1185 0 1185 355 0 355 0 0 -45z m-589 -2492 c12
-16 12 -17 -1 -6 -8 6 -33 13 -55 16 l-40 4 41 1 c29 1 46 -3 55 -15z m187 5
c7 -7 12 -21 11 -32 -1 -18 -2 -17 -8 4 -5 20 -14 26 -44 28 -36 3 -37 3 -37
-32 0 -32 3 -36 28 -37 15 0 21 -3 15 -6 -16 -6 23 -62 52 -73 16 -7 17 -9 3
-9 -9 -1 -31 17 -48 39 -17 22 -36 40 -40 40 -5 0 -11 -19 -13 -42 -2 -24 -4
-4 -5 45 l-2 87 38 0 c21 0 43 -5 50 -12z m109 -121 c-2 -23 -3 -1 -3 48 0 50
1 68 3 42 2 -26 2 -67 0 -90z m224 116 c11 -15 11 -16 -1 -5 -20 17 -70 15
-92 -5 -23 -21 -25 -95 -2 -117 18 -19 65 -21 82 -4 8 8 12 8 12 1 0 -28 -72
-31 -100 -3 -28 28 -27 96 2 127 26 28 79 31 99 6z m142 10 c-42 -4 -43 -5
-43 -39 0 -33 1 -34 43 -36 l42 -1 -42 -4 c-41 -4 -43 -5 -43 -38 0 -33 2 -34
43 -38 l42 -4 -47 -1 -48 -2 0 85 0 85 48 -2 47 -1 -42 -4z m335 -5 c7 -7 11
-23 11 -37 -1 -24 -2 -24 -8 4 -5 27 -10 30 -49 33 l-42 3 0 -40 c0 -39 1 -41
33 -43 l32 -1 -32 -4 c-28 -4 -32 -8 -36 -41 -2 -20 -4 2 -5 51 l-2 87 43 0
c24 0 48 -5 55 -12z m155 -151 l42 -4 -47 -1 -48 -2 2 88 2 87 3 -82 4 -82 42
-4z m139 15 c18 -22 71 -11 85 18 9 17 13 20 13 8 0 -25 -28 -48 -60 -48 -48
0 -60 22 -58 103 l2 72 3 -70 c2 -38 9 -75 15 -83z m105 81 c-2 -16 -4 -5 -4
22 0 28 2 40 4 28 2 -13 2 -35 0 -50z m214 50 c11 -15 11 -16 -1 -5 -20 17
-75 15 -91 -4 -7 -9 -16 -34 -20 -57 l-6 -42 -2 36 c-1 51 30 89 74 89 19 0
38 -7 46 -17z m147 -22 l47 44 -42 -44 -42 -44 26 -36 25 -36 -30 35 -31 35
-4 -45 c-2 -25 -4 -4 -4 45 0 50 2 70 4 46 l4 -44 47 44z m175 32 c-42 -4 -43
-5 -43 -39 0 -33 1 -34 43 -36 l42 -1 -42 -4 c-41 -4 -43 -5 -43 -38 0 -33 2
-34 43 -38 l42 -4 -47 -1 -48 -2 0 85 0 85 48 -2 47 -1 -42 -4z m215 -5 c7 -7
12 -22 12 -35 0 -28 -46 -54 -75 -42 -17 6 -15 8 10 8 41 2 57 14 53 42 -2 19
-11 25 -43 30 l-40 6 36 2 c19 0 40 -4 47 -11z m-2143 -67 c-3 -6 -11 -11 -16
-11 -5 0 -4 6 3 14 14 16 24 13 13 -3z m-47 -18 c-10 -2 -26 -2 -35 0 -10 3
-2 5 17 5 19 0 27 -2 18 -5z m1601 -63 c12 0 32 5 44 11 21 10 21 10 3 -5 -25
-20 -70 -20 -90 0 -22 22 -20 31 2 11 10 -10 29 -17 41 -17z m610 -9 c-6 -2
-18 4 -27 13 -15 15 -15 15 10 4 15 -7 23 -15 17 -17z m-372 3 c-3 -3 -12 -4
-19 -1 -8 3 -5 6 6 6 11 1 17 -2 13 -5z"/>
<path d="M2470 3805 c0 -2 13 -11 28 -19 91 -47 194 -165 236 -272 67 -166 58
-423 -20 -576 l-24 -48 -54 0 -55 0 30 58 c46 91 63 172 63 307 0 129 -15 198
-61 289 -30 59 -111 142 -170 174 l-43 23 0 -546 0 -547 373 5 c334 4 382 7
471 26 319 71 459 241 459 561 0 129 -17 213 -61 294 -55 103 -173 193 -302
230 -135 39 -217 46 -547 46 -178 0 -323 -2 -323 -5z"/>
</g>
</svg>
